<svg width="64.000000" height="39.000000" viewBox="0 0 64 39" fill="none" xmlns="http://www.w3.org/2000/svg" xmlns:xlink="http://www.w3.org/1999/xlink">
	<desc>
			Created with Pixso.
	</desc>
	<defs>
		<clipPath id="clip1_1239">
			<rect id="пошта" width="64.000000" height="39.000000" fill="white" fill-opacity="0"/>
		</clipPath>
	</defs>
	<g clip-path="url(#clip1_1239)">
		<rect id="Rectangle 1" x="17.542969" y="5.176270" rx="4.000000" width="38.000000" height="30.000000" stroke="#000000" stroke-opacity="1.000000" stroke-width="2.000000"/>
		<path id="Polygon 1" d="M54.86 11.62C58.24 9.47 56.71 4.25 52.71 4.25L21.28 4.25C17.28 4.25 15.75 9.47 19.13 11.62L34.85 21.63C36.16 22.46 37.83 22.46 39.14 21.63L54.86 11.62ZM53.79 9.93C55.47 8.86 54.71 6.25 52.71 6.25L21.28 6.25C19.28 6.25 18.52 8.86 20.2 9.93L35.92 19.94C36.58 20.36 37.41 20.36 38.07 19.94L53.79 9.93Z" fill="#000000" fill-opacity="1.000000" fill-rule="evenodd"/>
	</g>
</svg>
