<svg width="34.000000" height="34.000000" viewBox="0 0 34 34" fill="none" xmlns="http://www.w3.org/2000/svg" xmlns:xlink="http://www.w3.org/1999/xlink">
	<desc>
			Created with Pixso.
	</desc>
	<defs/>
	<path id="Vector 9" d="M12.83 7.1C12.13 6.37 9.08 3.29 7.47 1.66C7.34 1.54 7.2 1.41 7.04 1.33C6.45 1 5.41 0.72 4.7 1.47C3.87 2.33 1.57 4.16 0.82 5.4C-0.21 7.1 -0.08 7.52 0.18 9.7C0.5 12.42 1.6 14.7 3.15 17.61C4.7 20.52 9.47 25.65 14.25 29.07C19.03 32.49 22.77 33 23.8 33C24.84 33 26.45 32.81 28.45 31.1C29.82 29.92 30.85 28.92 31.35 28.4C31.48 28.26 31.64 28.13 31.76 27.97C32.09 27.53 32.24 26.65 31.03 25.46C29.68 24.14 27.33 21.61 26.11 20.29C25.95 20.11 25.77 19.94 25.55 19.84C24.99 19.58 24.07 19.4 23.35 20.02C22.86 20.44 22.11 21.19 21.43 21.91C20.59 22.79 19.31 23.12 18.25 22.54C15.85 21.24 12.51 18.72 10.08 14.79C9.39 13.68 9.67 12.26 10.62 11.36L12.38 9.7C12.83 9.15 13.55 7.86 12.83 7.1Z" stroke="#000000" stroke-opacity="1.000000" stroke-width="2.000000"/>
</svg>
