<svg width="26.000000" height="25.000000" viewBox="0 0 26 25" fill="none" xmlns="http://www.w3.org/2000/svg" xmlns:xlink="http://www.w3.org/1999/xlink">
	<desc>
			Created with Pixso.
	</desc>
	<defs/>
	<path id="Vector 15" d="M16.2 16.61L19.58 16.61L20.37 12.06L16.2 12.06L16.2 9.23L20.37 9.23L20.37 4.62L15.95 4.62C14.64 4.64 11.94 5.51 11.58 8.84L11.58 12.06L8.7 12.06L8.7 16.61L11.58 16.61L11.58 24L4.03 24C3.02 23.83 1 22.94 1 20.73C1 18.51 1 8.17 1 3.29C1.03 2.21 1.68 0.06 4.03 0.02C6.37 -0.02 17.09 0 22.16 0.02C22.99 0.18 24.67 1.07 24.75 3.29C24.83 5.51 24.95 15.84 25 20.73C24.95 21.82 24.15 24 21.37 24C18.58 24 16.76 24 16.2 24L16.2 16.61Z" stroke="#000000" stroke-opacity="1.000000" stroke-width="2.000000"/>
</svg>
